<?xml version="1.0" encoding="UTF-8"?>
<svg id="Layer_1" xmlns="http://www.w3.org/2000/svg" version="1.1" viewBox="0 0 800 734.28">
  <!-- Generator: Adobe Illustrator 30.6.0, SVG Export Plug-In . SVG Version: 2.1.4 Build 109)  -->
  <defs>
    <style>
      .st0 {
        fill: #15d4ff;
        fill-rule: evenodd;
      }
    </style>
  </defs>
  <path class="st0" d="M261.67,226.68c1.86,5.98,4.76,11.85,5.42,17.96,5.77,52.73,11.13,105.51,16.66,158.27.41,3.96,1.1,7.89,1.66,11.83,1.22.07,2.43.14,3.65.2.41-3.41,1.14-6.82,1.17-10.23.36-38.01-.02-76.05,1.14-114.04.74-24.08,3.93-48.08,5.57-72.15.46-6.68,4.49-6.26,8.78-5.95,19.85,1.46,39.03-1.79,57.79-8.01,4.98-1.65,9.84-3.67,14.75-5.52.77.57,1.53,1.14,2.29,1.71-1.44,3.93-2.67,7.95-4.36,11.76-25.53,57.69-49.15,116.05-59.05,178.86-5.6,35.53-4.6,71.37-2.43,107.08,2.7,44.47,4.86,89.06,10.22,133.25,2.97,24.49,11.9,48.27,18.36,72.31.83,3.11,2.91,5.89,5.05,10.07,5.6-8.49,4.21-16.28,3.11-23.85-5.84-40.42-12.9-80.69-17.51-121.24-7.13-62.51-8.96-125.3.97-187.67,4.35-27.38,12.34-54.17,18.78-81.21.57-2.41,1.85-4.64,2.09-5.22,8.98,0,16.71-.43,24.34.29,1.97.19,4.62,3.69,5.21,6.1,2.1,8.52,3.51,17.21,5.05,25.87,5.79,32.4,11.84,64.75,17.22,97.21,8.41,50.76,15.95,101.71,11.73,153.33-2.94,35.87-8.16,71.55-11.93,107.37-1.15,10.93-1.2,22.02-.97,33.03.06,2.7,3.21,5.33,4.94,7.99,2.46-2.14,6.62-3.98,7.08-6.49,1.33-7.37,2.49-15.2,1.36-22.5-2.56-16.65-5.13-33.22-1.4-49.87,2.59-11.56,6.23-22.9,9.57-34.28.32-1.08,2.08-2.71,2.74-2.54,1.65.45,3.56,1.48,4.45,2.86,3.43,5.32,6.51,10.88,10.4,17.5,15.31-19.49,12.24-39.12,6.71-59.05.82-.52,1.64-1.03,2.45-1.55,3.01,2.68,6.61,4.92,8.92,8.11,13.74,18.97,16.02,40.12,11.07,62.49-.66,2.97-1.27,5.95-2.46,11.52,4.44-3.04,7.13-4.69,9.6-6.61,24.95-19.39,33.17-45.48,30.9-76.06-2.55-34.62-16.38-63.01-41.12-87.95-40.2-40.51-64.84-90.18-74.49-146.4-6.31-36.76.3-71.5,26.09-100.33,26.43-29.55,71.98-32.2,102.02-6.41,14.64,12.56,29.04,25.4,43.78,37.84,6.39,5.39,7.52,10.32,1.94,17.19-15.42,19.01-23.06,41.45-27.68,65.13-.75,3.83-1.94,7.57-3.45,13.37-3.83-3.2-6.6-5.18-8.97-7.56-3.32-3.33-6.35-4.01-10.38-.93-7.58,5.79-15.44,11.22-23.31,16.9,3.22,10.42,6.26,21.56,10.13,32.41,3.29,9.21,9.66,11.47,18.23,6.7,9.47-5.27,16.71-12.99,19.98-23.44,9.49-30.31,18.6-60.74,27.87-91.13,1.46-4.78,3-9.54,4.51-14.31.79-.07,1.57-.13,2.37-.19,1.48,3.38,3.35,6.65,4.39,10.17,4.89,16.61,12.76,30.23,31.15,35.03,3.04.8,5.79,4.35,7.79,7.25,14.35,20.76,31.52,38.7,53.18,51.75,13.84,8.34,28.27,15.71,42.68,23.03,10.82,5.49,12.07,4.62,19.33-5,14.77-19.57,25.34-41.1,29.35-65.3,1.48-8.96.24-18.38.24-28.38,1.77,1.22,3.62,1.98,4.74,3.34,6.14,7.44,14.4,14.19,17.5,22.77,3.62,10,8.05,20.39,2.2,32.87-14.61,31.12-16.16,64.66-12.41,98.39,2.29,20.59,6.44,40.8,14.45,60.19,6.7,16.22,6.67,33.19.64,49.71-5.31,14.54-11.28,28.84-17.4,43.06-1.17,2.72-4.42,4.55-6.71,6.79-.77-.5-1.55-1.01-2.32-1.52.48-4.66,1.6-9.36,1.35-13.99-1.59-29.79-10.9-56.71-31.02-79.22-7-7.83-22.94-8.02-32.92-.36-31.75,24.38-58.71,53.4-82.04,85.85-2.16,2.99-4,6.23-6.34,9.06-4.11,4.98-8.72,8.1-15.33,3.63-6.84-4.62-10.76.51-13.76,5.29-7.56,11.99-14.55,24.34-21.86,36.48-1.84,3.06-4.06,5.91-6.1,8.86-.72-.17-1.44-.34-2.16-.51,0-2.84-.26-5.71.04-8.52,8.53-81.14,6.02-161.51-16.52-240.51-.78-2.73-1.83-5.37-2.64-8.09-1.88-6.41-4.98-8.64-11.9-5.51-14.22,6.46-24.38.83-27.78-14.29-3.11-13.84-6.72-27.54-19.41-37.53,3.06-1.31,4.51-2.4,6.04-2.52,16.9-1.36,22.38-14.23,26.29-27.43,3.98-13.42.83-25.84-9.7-35.86-12.3-11.71-28.05-12.37-42.42-1.23-16,12.41-22.74,30.06-23.46,49.2-1.79,48.21,15.41,87.72,55.03,117.27,45.34,33.82,63.45,79.87,53.78,135.39-4.8,27.57-13.15,54.55-20.55,81.61-3.47,12.69-9.36,24.55-20.07,32.93-25.79,20.2-61.52,7.38-70.88-25.16-4.39-15.28-1.68-29.79,4.25-44,4.68-11.21,4.76-11.18-4.82-21.78-1.99,4.77-4.3,8.82-5.41,13.18-5.08,20.1-6.08,40.33-1.25,60.7,2.82,11.9,2.25,23.01-7.37,32.28-5.39,5.19-10.84,5.75-16.87,1.85-4.29-2.77-8.29-5.97-12.56-8.79-9.89-6.54-19.08-6.54-26.84,2.09-8.07,8.99-16.33,8.69-26.74,5.52-43.46-13.19-82.57-34.59-119.01-61.29-4.13-3.02-7.48-6.04-6.07-11.89.36-1.49-.36-3.29-.77-4.91-1.41-5.47-4.23-10.95-4.14-16.38.33-19.07-5.94-35.71-17.07-50.67-11.6-15.6-27.41-22.72-46.27-17.4-18.74,5.29-32.09-1.64-41.94-15.94-14.21-20.65-24.87-43.18-30.33-67.96-1.63-7.38-4.39-14.58-7.26-21.59-2.73-6.64-3.88-12.87-.19-19.53,1.13-2.04.88-4.8,1.62-7.11,1.05-3.3,1.48-7.69,3.81-9.53,11.83-9.3,12.59-21.99,10.25-34.71-2.3-12.46-.11-22.58,9.6-30.58,9.39-7.75,19.78-8.82,31.14-4.11,2.69,1.12,7.06.97,9.48-.52,19.78-12.14,39.72-24.11,58.72-37.4,14.13-9.89,22.07-24.2,22.09-42.09,0-1.98.34-3.96.56-5.93,1.51-13.08,3.57-14.08,15.24-7.43,9.81,5.6,21.4,1.25,26.2-10.66,2.4-5.96,3.11-12.61,4.58-18.95.54-2.31,1.03-4.63,1.55-6.95.9-.11,1.8-.23,2.71-.35ZM756.64,498.69c.46-.92.92-1.84,1.4-2.76,6.96,2.99,13.93,5.98,23.04,9.89-6.64-11.64-19.45-10.11-25.48-19.1,6.13,1.41,12.27,2.83,18.41,4.24.23-.77.46-1.54.68-2.31-6.17-2.4-12.34-4.81-18.51-7.21.24-.78.48-1.56.7-2.34,5.08.86,10.16,1.71,15.24,2.57.15-.59.29-1.17.44-1.76-4.18-1.63-8.37-3.27-12.56-4.9.12-.55.24-1.09.36-1.64,3.88.38,7.75.75,11.63,1.13.16-.82.33-1.64.49-2.45-7.49-1.51-14.98-3.02-22.48-4.54-.07-.86-.15-1.73-.23-2.59,3.2-.63,6.37-1.64,9.59-1.81,3.69-.19,7.43.35,11.16.57.16-.95.33-1.9.49-2.86-6.84-2.4-13.68-4.79-22.29-7.81q20.94-4.77,22.61-9.66c-3.99,1.06-7.65,2.03-11.31,3-.17-.55-.34-1.11-.5-1.67,2.87-2.01,5.74-4.02,8.61-6.04-.31-.4-.62-.8-.93-1.2-5.23,1.14-10.46,2.27-15.69,3.4-.22-.85-.43-1.71-.64-2.56,4.32-2.39,8.64-4.77,14.82-8.19-7.38-.62-12.12-1.03-16.86-1.43-.06-.74-.12-1.48-.18-2.22,7.98-2.64,15.96-5.28,23.93-7.93-.27-.93-.54-1.86-.81-2.78-8.16.33-16.58,4.09-24.5-1.28,4.75-2.09,9.59-2.87,14.38-3.93,11.97-2.63,13.96-5.77,16.17-17.44,1.88-9.95,5.61-19.55,8.49-29.31.46-1.58.76-3.21,1.13-4.81-1.27-1.02-2.54-2.05-3.81-3.07-1.8,4.12-3.61,8.24-5.41,12.36-1.24-.98-2.48-1.97-3.72-2.95,2.1-4.1,4.2-8.19,6.32-12.33-1.81-2.46-3.6-4.9-5.89-8.02-8.51,30.09-23.38,55.89-42.15,78.07-5.33-3.81-8.87-7.36-13.14-9.21-37.78-16.35-71.48-38.11-96.97-71.16-1.06-1.38-2.97-2.11-4.53-3.17-1.04,1.11-1.68,1.64-2.15,2.31-23.62,34.25-28.44,72.1-21.82,112.28,1.05,6.35,4.05,7.13,9.59,5.52,0-6.44.35-12.64-.06-18.79-1.64-24.5,2.75-48.01,11.29-70.84.78-2.08,2.98-3.62,4.53-5.41,1.82,1.62,3.88,3.04,5.42,4.9,3.4,4.1,5.83,9.35,9.9,12.49,13.91,10.7,17.65,22.11,12.22,40.25-13.39,44.78-11.87,90.21,1.78,135.1.86,2.84,1.13,7.93-.45,9.1-10.34,7.62-21.25,14.44-34.03,22.87-4.79-35.54-9.44-70.04-14.09-104.48-6.01,1.12-6.18,1.11-6.3,7.41-.21,10.49-.65,21-.18,31.47,1.22,27.48,7.2,53.91,18.44,79.1,2.76,6.19,6.03,8.02,11.2,2.36,4.59-5.02,10.13-9.36,13.86-14.92,17.35-25.89,41.46-44.91,64.88-64.61,3.79-3.19,8.48-5.97,13.22-7.29,17.13-4.76,30.66,1.32,39.27,19.82,8.2,17.62,14.06,36.32,20.96,54.55.5,1.33,1.05,2.65,1.57,3.97.66-.16,1.33-.33,2-.49-1.16-6.34-2.32-12.67-3.48-19,.81-.19,1.61-.37,2.42-.55,1.83,2.39,3.67,4.79,6.09,7.94,4.03-11.96-10.58-15.29-9.8-26.69,5.32,4.79,9.48,8.53,13.88,12.5,6.77-14.78,8.78-33.6-6.72-43.83-8.5-5.61-16.81-11.52-25.13-17.39-1.7-1.2-3.08-2.85-4.6-4.3.42-.38.84-.77,1.26-1.16,9.56,5.03,19.12,10.06,28.68,15.09.57-.95,1.14-1.91,1.72-2.86-8.96-5.74-17.92-11.48-26.86-17.22ZM71.26,446.29c-1.02.38-2.04.77-3.06,1.15,1.13,4.22,1.93,8.56,3.47,12.62,1.48,3.9,4.92,7.35,5.44,11.27,2.88,21.44,10.26,41.36,21.09,59.77,5.5,9.34,12.73,18.19,20.88,25.32,9.84,8.61,16.74,6.85,23.8-4.14,4.73-7.37,9-15.14,12.51-23.16,7.68-17.56,8.65-36.23,8.82-54.9-3.06,1.83-5.41,3.23-7.77,4.64-.41-2.79-1.09-5.58-1.18-8.38-.18-5.98-.06-11.97-.06-17.96-.82-.04-1.64-.08-2.46-.12-1.28,5.74-2.38,11.55-3.96,17.2-.41,1.44-2.35,2.46-3.59,3.68-1.04-1.48-2.68-2.87-2.96-4.48-.31-1.81.87-3.82.97-5.76.67-12.69,2.47-25.49,1.48-38.06-1-12.68-.07-17.16,12.54-23.75-5.53-14.1-11.12-28.35-16.67-42.53-11.93,3.81-8.56,10.52-6.69,16.59,3.63,11.75.05,21.33-8.94,28.95-8.05,6.82-21.31,7.27-31.28,1.79-2.09-1.15-4.24-2.2-7.29-3.77-.66,7.67-.82,14.18-1.98,20.51-.45,2.47-2.69,5.44-4.93,6.62-7.01,3.66-7.46,5.22-1.33,10.56,3.32,2.89,7.7,5.17,4.76,11.45-4.03-1.77-7.82-3.43-11.61-5.1ZM219.69,625.86c1.26-2.12,2-3.3,2.68-4.51,11.46-20.55,14.14-43.38,18.03-66.07,8.22-47.92,15.34-95.85,12.33-144.68-.46-7.45-1.03-14.89-1.7-24.66-4.49,3.8-7.51,5.54-9.42,8.11-7.61,10.18-16.21,19.92-22.03,31.09-20.88,40.04-26.13,83.55-25.68,128,.07,7.26,1.15,14.89,3.61,21.68,5.85,16.18,12.78,31.97,19.35,47.88.4.96,1.45,1.65,2.83,3.17ZM279.46,693.67c8-12.07,9.87-24.26,11-36.63,5.53-60.43,1.03-120.77-1.77-181.13-.18-3.86-1.86-7.64-2.84-11.46-2.96,1.58-4.09,2.9-4.28,4.35-1.13,8.71-2.18,17.43-3.01,26.18-2.81,29.36-6.13,58.69-8.08,88.12-1.7,25.7-2.32,51.51-2.38,77.28-.02,11.27,3.55,22.19,11.36,33.3ZM223.8,271.21c-2.27,1.98-3.18,2.41-3.46,3.09-3.19,7.75,6.13,32.69,13.55,36.55,4.44,2.31,6.22-.27,5.64-3.9-2.09-13-8.33-24.15-15.74-35.73ZM195.96,378c5.28-4.33,9.25-7.78,13.44-10.96,4.5-3.42,2.36-6.78.32-10.3-2.64-4.53-5.24-2.41-8.22-.27-2.71,1.96-6.12,3.05-8.58,5.23-1.64,1.46-3.45,4.58-2.92,6.24,1.08,3.44,3.67,6.39,5.97,10.05Z"/>
  <path class="st0" d="M69.13,154.29c10.74-1.93,14.81,1.01,15.02,12.51.11,5.82-.92,11.84-2.58,17.43-.65,2.19-4.35,4.59-6.81,4.78-1.97.15-5.23-2.51-6.07-4.65-1.95-4.93-2.78-10.29-3.71-14.07-4.42,1.47-10.91,5.83-13.79,4.12-5.49-3.25-11.77-9.56-12.64-15.35-2.07-13.82-1.94-28.14-.97-42.14.26-3.81,6.16-9.04,10.42-10.24,3.85-1.08,10.92,1.11,13.15,4.27,4.01,5.71,6.5,13.03,7.7,20.01,1.26,7.38.28,15.14.28,23.34ZM41.71,144.23c1.83,6.95,3.48,15.54,6.45,23.63,1.57,4.28,6.44,7.33,9.56,1.43,7.87-14.92,11.45-30.94,6.42-47.52-1.01-3.32-6.34-7.41-9.64-7.36-3.12.04-7.68,4.5-8.93,7.97-2.24,6.25-2.48,13.23-3.86,21.85ZM82.12,175.89c-.74-5.21-1.32-10.26-2.38-15.2-.11-.54-4.3-.93-4.4-.66-1.66,5.03-2.99,10.17-4.55,15.86h11.32Z"/>
  <path class="st0" d="M62.07,78.86c1.22-8.02,2.02-15.62,3.6-23.04,1.27-5.96,5.03-10.16,11.53-10.78,6.74-.64,12.89,1.36,15.64,7.73,2.41,5.56,4.72,12.03,4.18,17.82-1.06,11.41-3.72,22.75-6.54,33.91-1.49,5.93-5.83,12.3-12.33,10.3-5-1.53-10.39-7.1-12.29-12.13-2.82-7.45-2.71-16.01-3.8-23.81ZM69.08,86.91c1.14,6.17,1.64,13.29,3.9,19.81,2.13,6.14,7.83,6.89,10.8,1.53,7.92-14.29,13.2-29.56,8.93-46.1-.87-3.37-5.95-8.08-8.84-7.91-3.6.22-8.79,4.2-10.01,7.7-2.64,7.6-3.19,15.93-4.77,24.96Z"/>
  <path class="st0" d="M0,90.62c.53-4.77.81-9.58,1.66-14.29,1.15-6.41,4.83-10.72,11.52-11.96,7.02-1.3,12.19,1.64,15.92,7.31,8.45,12.82,7.09,45.69-2.28,58.02-5.01,6.58-12.34,6.13-17.38-1.6C2.02,116.77.27,103.91,0,90.62ZM7.12,99.29c1.35,7.53,2.43,16.24,4.68,24.64.71,2.67,4.29,4.94,7.06,6.48.83.47,4.18-1.73,5-3.39,7.41-14.91,10.25-30.65,5.37-46.79-1-3.31-6.55-7.69-9.5-7.34-3.55.42-7.88,4.8-9.49,8.5-2.16,5.01-2.05,11-3.12,17.9Z"/>
  <path class="st0" d="M29.25,25.96c.22-3.96.13-7.98.74-11.88.93-5.96,2.17-11.69,9.68-13.31,7.68-1.66,14.2-1.11,18.2,6.59,1.94,3.73,5.16,7.77,4.92,11.48-.89,13.99-2.44,28-4.99,41.78-.61,3.31-5.92,7.82-9.27,8-3.49.18-9.18-3.44-10.48-6.75-4.47-11.41-7.44-23.41-10.99-35.19.73-.24,1.45-.48,2.18-.72ZM35.52,34.57c2.15,8.02,3.84,17.49,7.33,26.25,2.53,6.36,8.06,6.64,10.64,1.01,7.3-15.92,9.63-32.57,3.24-49.36-1.04-2.74-5.46-6.08-8.03-5.85-3.05.28-7.21,3.56-8.33,6.52-2.37,6.21-3.08,13.06-4.85,21.44Z"/>
  <path class="st0" d="M375.98,252.93c9.43-.03,15.84,6.41,15.97,16.04.12,9.04-5.75,15.41-14.36,15.57-9.53.18-16.92-7.41-16.95-17.41-.03-8.97,5.59-14.17,15.34-14.2Z"/>
  <path class="st0" d="M38.28,175.1c-.93,4.24-1.37,8.52-2.84,12.41-2.7,7.12-9.12,8.09-12.21,1.23-3.1-6.89-4.33-14.96-4.68-22.59-.13-2.79,4.65-8.17,7.15-8.14,3.49.03,7.78,3.38,10.16,6.51,1.98,2.6,1.68,6.93,2.42,10.58ZM35.3,179.18c-1.45-5.68-2.58-10.54-4.09-15.27-.11-.35-4.25-.17-4.39.35-1.24,4.57-2,9.28-2.94,14.16,4.23.28,6.71.45,11.42.77Z"/>
  <path class="st0" d="M67.95,203.76c-.54,3.65-.44,7.84-1.92,11.37-1.15,2.77-4.22,6.56-6.49,6.59-2.87.03-7.87-2.88-8.31-5.21-1.45-7.81-1.88-15.96-1.34-23.88.15-2.13,5.33-5.66,7.89-5.41,3.13.31,6.79,3.39,8.61,6.28,1.64,2.59,1.1,6.56,1.55,10.26ZM54.37,208.22h9.17c.37-2.64,1.38-5.06.84-7.06-.85-3.16-2.74-6.05-4.19-9.06-1.94,2.61-4.41,4.99-5.64,7.9-.9,2.13-.18,4.94-.18,8.22Z"/>
  <path class="st0" d="M26.28,218.8c1.83-5.89.73-12.8,8.87-13.19,7.45-.35,10.32,5.52,11.09,11.59.69,5.47.24,11.26-.79,16.7-.45,2.42-3.38,5.81-5.52,6.07-2.35.29-6.3-1.88-7.41-4.07-2.73-5.37-4.23-11.36-6.23-17.1ZM44.85,227.23c-1.6-5.55-2.89-10.48-4.6-15.27-.16-.44-4.23-.23-4.31.16-1.12,4.92-1.84,9.93-2.69,15.11h11.61Z"/>
  <path class="st0" d="M52.1,304.42c-4.32,3.27-6.92,5.83-10.04,7.19-.77.34-4.94-4.24-4.63-4.73,1.88-3,4.36-5.81,7.24-7.85.61-.43,3.68,2.61,7.43,5.4Z"/>
  <path class="st0" d="M55.25,358.64c2.5,4.04,5.05,6.74,4.53,7.62-1.79,3.02-4.66,5.41-7.11,8.03-1.5-1.65-4.57-3.87-4.21-4.83,1.2-3.23,3.62-6.02,6.79-10.82Z"/>
  <path class="st0" d="M53.39,325.75c-2.32-3.87-4.77-6.41-4.26-7.39,1.62-3.09,4.36-5.61,6.66-8.34,1.65,1.7,4.98,4.04,4.63,4.98-1.23,3.24-3.75,6-7.03,10.76Z"/>
  <path class="st0" d="M61.05,388.79c-4.22,3.28-6.91,5.71-10.01,7.4-.45.25-4.36-4.04-4.05-4.51,1.94-2.97,4.44-5.69,7.25-7.85.47-.37,3.35,2.39,6.81,4.97Z"/>
  <path class="st0" d="M49.88,253.97c-3.99,3.61-6.47,6.38-9.52,8.14-.6.35-3.46-3.21-5.27-4.97,2.6-2.58,4.99-5.48,7.96-7.51.67-.46,3.39,2.09,6.83,4.34Z"/>
  <path class="st0" d="M54.44,301.62c-2.86-3.65-5.72-6.32-5.32-6.97,2-3.24,4.86-5.96,7.42-8.86,1.47,1.69,4.45,3.84,4.11,4.97-1,3.27-3.35,6.12-6.2,10.86Z"/>
  <path class="st0" d="M64.65,241.29c-4.38,3.02-7.21,5.3-10.4,6.8-.49.23-4.15-4.24-3.83-4.67,2.1-2.82,4.7-5.4,7.62-7.34.55-.37,3.26,2.51,6.61,5.2Z"/>
  <path class="st0" d="M50.01,282.4c-2.88,1.93-5.61,4.25-8.75,5.5-.74.29-4.38-4.23-4.2-4.46,2.41-2.91,4.97-6.02,8.19-7.8,1.46-.8,4.49,1.24,6.81,1.99-.68,1.59-1.36,3.17-2.05,4.76Z"/>
  <path class="st0" d="M53.47,353.13c-2.46-4.24-4.94-6.86-4.4-7.9,1.6-3.07,4.4-5.5,6.73-8.18,1.49,1.64,4.54,3.8,4.2,4.84-1.07,3.29-3.42,6.16-6.53,11.24Z"/>
  <path class="st0" d="M61.76,435.81c-4.52,3.5-7.17,5.95-10.26,7.51-.51.26-4.68-4.26-4.26-5.09,1.48-2.88,3.93-5.59,6.68-7.29.87-.54,3.83,2.28,7.84,4.86Z"/>
  <path class="st0" d="M54.48,405.58c2.33,4.05,4.8,6.81,4.26,7.68-1.83,2.96-4.74,5.24-7.23,7.78-1.51-1.61-4.58-3.9-4.24-4.71,1.4-3.23,3.86-6,7.21-10.76Z"/>
  <path class="st0" d="M53.75,268.47c-.48,1.77-.88,3.22-1.28,4.67-3.02-4.65-3.04-8.9,2.39-10.98,1.69-.64,5.36.63,6.28,2.14.9,1.48-.56,4.39-.97,6.67-1.43-.42-2.87-.78-4.26-1.27-.69-.25-1.29-.74-2.16-1.24Z"/>
  <path class="st0" d="M138.2,422.42c1.67,4.65,3.31,6.93,3.12,9.05-.95,10.65-2.18,21.29-3.84,31.84-.27,1.76-3.16,3.1-4.84,4.64-.9-1.88-2.7-3.82-2.55-5.6.91-10.6,2.14-21.19,3.61-31.73.29-2.12,2.13-4.02,4.5-8.2Z"/>
  <path class="st0" d="M128.83,433.47c2.13,11.54-.52,20.48-6.16,29.56-4.31-5.93-.6-24.94,6.16-29.56Z"/>
  <path class="st0" d="M61.31,151.38c-3.62,4.51-6.14,7.65-8.66,10.79-1.72-3.5-4.6-6.94-4.79-10.52-.15-2.79,3.04-5.76,4.74-8.65,2.48,2.38,4.95,4.76,8.71,8.38Z"/>
  <path class="st0" d="M87.99,91.02c-3.45,4.53-6.08,7.98-8.71,11.44-1.69-2.83-4.96-5.85-4.67-8.46.42-3.75,3.45-7.2,5.36-10.78,2.29,2.23,4.59,4.47,8.02,7.8Z"/>
  <path class="st0" d="M27.46,111.1c-3.37,4.4-5.65,7.38-7.92,10.36-1.86-3.59-4.81-7.06-5.21-10.8-.28-2.66,2.89-5.67,4.51-8.54,2.56,2.66,5.12,5.33,8.62,8.97Z"/>
  <path class="st0" d="M56.12,46.77c-3.16,4.02-5.34,6.79-7.52,9.57-1.91-3.55-5.04-7-5.34-10.68-.21-2.69,3.29-5.68,5.14-8.54,2.32,2.91,4.65,5.81,7.72,9.64Z"/>
</svg>